<?xml version="1.0" encoding="UTF-8"?> <svg xmlns="http://www.w3.org/2000/svg" width="22" height="22" viewBox="0 0 22 22"> <title>ui/ca-maple-leaf-02</title> <path d="M11 0L9.167 3.28c-.208.357-.58.324-.953.125l-1.326-.66.988 5.04c.208.92-.459.92-.788.522L4.773 5.82l-.376 1.264c-.043.166-.234.34-.52.299L.95 6.79l.769 2.683c.164.598.293.845-.166 1.002l-1.044.471 5.04 3.93c.2.148.3.416.229.658l-.441 1.39c1.735-.193 2.67-.482 4.406-.66.153-.015.41.228.409.398l-.165 5.09h1.961l-.065-5.08c0-.17.232-.423.385-.408 1.736.178 2.66.467 4.395.66l-.44-1.39a.62.62 0 0 1 .228-.658l5.04-3.93-1.044-.47c-.459-.158-.33-.405-.166-1.003l.769-2.683-2.927.59c-.286.042-.477-.132-.52-.298l-.376-1.264-2.315 2.488c-.33.399-.996.399-.788-.522l.988-5.04-1.326.66c-.373.2-1.12.232-1.329-.124" fill="#EE2A24" fill-rule="nonzero"></path> </svg> 